<?xml version="1.0" encoding="UTF-8" standalone="no"?>
<!-- Created with Inkscape (http://www.inkscape.org/) -->

<svg
   width="20mm"
   height="80mm"
   id="svg2"
   version="1.1"
   inkscape:version="1.1.2 (b8e25be8, 2022-02-05)"
   sodipodi:docname="sonicegg.svg"
   inkscape:export-filename="/Users/benjaminharder/Downloads/sonicegg.png"
   inkscape:export-xdpi="96"
   inkscape:export-ydpi="96"
   xmlns:inkscape="http://www.inkscape.org/namespaces/inkscape"
   xmlns:sodipodi="http://sodipodi.sourceforge.net/DTD/sodipodi-0.dtd"
   xmlns="http://www.w3.org/2000/svg"
   xmlns:svg="http://www.w3.org/2000/svg"
   xmlns:rdf="http://www.w3.org/1999/02/22-rdf-syntax-ns#"
   xmlns:cc="http://creativecommons.org/ns#"
   xmlns:dc="http://purl.org/dc/elements/1.1/">
  <defs
     id="defs4" />
  <sodipodi:namedview
     id="base"
     pagecolor="#ffffff"
     bordercolor="#666666"
     borderopacity="1.0"
     inkscape:pageopacity="0.0"
     inkscape:pageshadow="2"
     inkscape:zoom="1.6844518"
     inkscape:cx="5.046152"
     inkscape:cy="166.81985"
     inkscape:document-units="px"
     inkscape:current-layer="layer1"
     showgrid="false"
     inkscape:window-width="1344"
     inkscape:window-height="670"
     inkscape:window-x="96"
     inkscape:window-y="25"
     inkscape:window-maximized="0"
     inkscape:pagecheckerboard="0"
     width="20px"
     units="mm" />
  <metadata
     id="metadata7">
    <rdf:RDF>
      <cc:Work
         rdf:about="">
        <dc:format>image/svg+xml</dc:format>
        <dc:type
           rdf:resource="http://purl.org/dc/dcmitype/StillImage" />
      </cc:Work>
    </rdf:RDF>
  </metadata>
  <g
     inkscape:label="1-default"
     inkscape:groupmode="layer"
     id="layer1"
     transform="translate(0,-252.36218)"
     style="display:inline">
    <g
       id="Layer_x0020_1-3"
       transform="matrix(0.00286962,-0.04983787,0.05171028,6.2727467e-4,7.5488946,421.90406)"
       style="display:inline">
      <g
         id="_1473327709744-7">
        <path
           class="fil0"
           d="m 512.04,551.2 c -39.86,7.98 -39.86,55.8 -31.89,119.6 7.98,71.75 31.89,119.6 71.76,111.63 39.87,0 39.87,-55.82 31.9,-119.6 C 575.84,599.05 559.88,551.2 512.05,551.2 Z"
           id="path57-9" />
        <path
           class="fil0"
           d="m 1333.3,630.93 c 0,0 -23.94,-111.61 -143.53,-207.29 -111.63,-79.74 -231.23,-71.77 -231.23,-71.77 0,0 31.9,-63.79 119.6,-111.63 79.74,-39.87 191.35,-47.82 191.35,-47.82 0,0 -71.75,-87.72 -215.27,-143.53 C 878.8,-14.9 735.29,-14.9 559.87,40.92 368.5,104.71 232.96,256.2 232.96,256.2 c 0,0 -191.36,-55.82 -223.26,-7.99 -39.86,47.86 55.82,231.24 55.82,231.24 0,0 -23.93,55.81 -15.96,159.45 7.98,111.63 71.78,191.38 71.78,191.38 -31.9,7.95 -63.79,23.9 -63.79,47.82 0,23.93 47.84,47.85 103.65,47.85 h 23.93 c 55.8,55.8 135.54,127.55 255.14,135.53 151.49,7.97 247.17,-47.82 310.96,-63.78 71.75,-23.93 175.41,-23.93 239.19,-23.93 191.36,23.93 271.08,71.78 271.08,71.78 0,0 7.97,-87.73 -71.75,-207.33 -63.79,-87.7 -191.37,-119.58 -191.37,-119.58 0,0 63.79,-55.82 143.53,-71.78 103.67,-23.89 191.38,-15.94 191.38,-15.94 z M 121.36,766.48 C 105.41,734.58 97.43,702.7 89.46,607 c 0,-47.82 15.95,-103.63 39.86,-111.61 31.9,-7.97 31.9,47.85 47.85,95.69 0,15.92 15.94,39.85 23.91,63.78 -7.97,-7.98 -7.97,-7.98 -7.97,0 -23.91,0 -31.89,47.85 -15.94,103.65 7.97,31.9 23.91,63.8 39.86,71.78 -15.95,0 -31.89,-7.97 -55.81,-7.97 0,0 -7.97,0 -7.97,7.97 -7.98,-15.98 -23.93,-39.88 -31.89,-63.81 z m 494.33,0 c -39.86,79.73 -103.65,103.65 -175.41,103.65 -71.78,0 -119.6,-39.85 -191.37,-31.9 15.96,-15.93 15.96,-55.8 7.97,-103.65 -7.97,-7.97 -7.97,-15.93 -15.95,-31.87 23.94,15.95 39.87,-7.97 39.87,-7.97 0,0 7.96,-119.6 47.83,-199.34 31.89,-63.78 79.73,-111.63 151.49,-119.59 63.79,-15.95 111.63,31.89 135.54,103.65 23.93,71.74 31.91,207.3 0.01,287.02 z"
           id="path59-0" />
      </g>
    </g>
  </g>
  <eggbot
     layer="12345"
     node="0"
     lastpath="0"
     lastpathnc="0"
     totaldeltax="0"
     totaldeltay="0" />
</svg>
