<?xml version="1.0" encoding="UTF-8" standalone="no"?>
<!-- Created with Inkscape (http://www.inkscape.org/) -->

<svg
   width="20mm"
   height="80mm"
   viewBox="0 0 20 79.999997"
   version="1.1"
   id="svg161"
   inkscape:version="1.1.2 (b8e25be8, 2022-02-05)"
   sodipodi:docname="stars.svg"
   xmlns:inkscape="http://www.inkscape.org/namespaces/inkscape"
   xmlns:sodipodi="http://sodipodi.sourceforge.net/DTD/sodipodi-0.dtd"
   xmlns="http://www.w3.org/2000/svg"
   xmlns:svg="http://www.w3.org/2000/svg">
  <sodipodi:namedview
     id="namedview163"
     pagecolor="#ffffff"
     bordercolor="#666666"
     borderopacity="1.0"
     inkscape:pageshadow="2"
     inkscape:pageopacity="0.0"
     inkscape:pagecheckerboard="0"
     inkscape:document-units="mm"
     showgrid="false"
     inkscape:zoom="0.45557943"
     inkscape:cx="631.06449"
     inkscape:cy="75.727739"
     inkscape:window-width="1312"
     inkscape:window-height="735"
     inkscape:window-x="0"
     inkscape:window-y="25"
     inkscape:window-maximized="0"
     inkscape:current-layer="layer1" />
  <defs
     id="defs158" />
  <g
     inkscape:label="Layer 1"
     inkscape:groupmode="layer"
     id="layer1">
    <path
       id="path1797"
       inkscape:transform-center-x="0.2115574"
       inkscape:transform-center-y="-0.086218579"
       transform="scale(0.26458333)"
       d="m 27.437586,32.925105 -7.486269,-1.994493 -5.887096,5.036302 -0.416509,-7.736197 -6.60902,-4.042658 7.228852,-2.786741 1.802497,-7.534801 4.884186,6.013897 7.723024,-0.614106 -4.210259,6.503533 z" />
    <path
       id="path1799"
       inkscape:transform-center-x="0.17866561"
       inkscape:transform-center-y="-0.17866568"
       transform="scale(0.26458333)"
       d="m 44.997641,65.850207 -8.78492,-2.979053 -7.434377,5.547937 0.118558,-9.275533 -7.57375,-5.356106 8.858192,-2.753542 2.753542,-8.858193 5.356106,7.573751 9.275533,-0.118558 -5.547936,7.434377 z" />
    <path
       id="path1801"
       inkscape:transform-center-x="0.060138338"
       inkscape:transform-center-y="-0.43615518"
       transform="scale(0.26458333)"
       d="m 34.022608,136.09043 -11.704769,-5.60173 -11.25018,6.46641 1.710586,-12.86293 -9.6264142,-8.70133 12.7619692,-2.34799 5.30073,-11.84413 6.176744,11.41179 12.902446,1.38125 -8.944532,9.40087 z" />
    <path
       id="path1803"
       inkscape:transform-center-x="0.3306678"
       inkscape:transform-center-y="-0.20532939"
       transform="scale(0.26458333)"
       d="m 57.070179,184.38058 -13.342881,-3.98053 -10.843347,8.73493 -0.337471,-13.91989 -11.658186,-7.61339 13.134314,-4.62244 3.638191,-13.44026 8.454923,11.06307 13.906712,-0.69315 -7.908884,11.45979 z" />
    <path
       id="path1805"
       inkscape:transform-center-x="-0.32225079"
       inkscape:transform-center-y="-0.10490481"
       transform="scale(0.26458333)"
       d="m 12.072537,228.28072 11.076588,1.0353 7.132345,-8.53769 2.43822,10.85438 10.323849,4.14497 -9.569685,5.67308 -0.751856,11.09943 -8.35261,-7.34824 -10.788521,2.71486 4.407487,-10.21453 z" />
    <path
       id="path1807"
       inkscape:transform-center-x="0.12592211"
       inkscape:transform-center-y="-0.25126107"
       transform="scale(0.26458333)"
       d="m 62.557695,99.872816 -9.107467,-3.632606 -8.155617,5.44313 0.640452,-9.78425 -7.696953,-6.074431 9.503289,-2.414395 3.398638,-9.197339 5.232904,8.292075 9.797427,0.390163 -6.269177,7.53918 z" />
    <path
       id="path1809"
       inkscape:transform-center-y="-0.33274809"
       transform="scale(0.26458333)"
       d="m 50.485161,267.79083 3.870578,7.84265 8.654876,1.25763 -6.262727,6.10465 1.478429,8.6199 -7.741156,-4.06976 -7.741157,4.06976 1.47843,-8.6199 -6.262727,-6.10465 8.654876,-1.25763 z" />
    <path
       id="path1811"
       inkscape:transform-center-x="0.23140922"
       inkscape:transform-center-y="-0.10607091"
       transform="scale(0.26458333)"
       d="m 59.265188,218.40318 -8.462371,-2.3255 -6.713137,5.65274 -0.403337,-8.76681 -7.450547,-4.63778 8.213096,-3.09269 2.108445,-8.51904 5.479309,6.85542 8.753639,-0.62728 -4.826697,7.32958 z" />
    <path
       id="path1817"
       inkscape:transform-center-x="0.091035706"
       inkscape:transform-center-y="-0.12237102"
       transform="scale(0.26458333)"
       d="m 22.498822,204.13565 -5.205173,-1.90117 -4.51703,3.2101 0.199632,-5.53791 -4.4488215,-3.30398 5.3285525,-1.52144 1.767507,-5.25207 3.093595,4.5976 5.541201,0.058 -3.416606,4.36292 z" />
    <path
       id="path1819"
       inkscape:transform-center-x="-0.0062283258"
       inkscape:transform-center-y="-0.23260226"
       transform="scale(0.26458333)"
       d="m 60.088313,133.34667 -5.525607,-2.96214 -5.572689,2.87259 1.109653,-6.17052 -4.454044,-4.41226 6.211411,-0.85146 2.819938,-5.59951 2.72921,5.64429 6.196862,0.95158 -4.524667,4.33981 z" />
  </g>
</svg>
