<?xml version="1.0" encoding="UTF-8" standalone="no"?>
<!-- Created with Inkscape (http://www.inkscape.org/) -->

<svg
   width="20mm"
   height="80mm"
   viewBox="0 0 20 79.999993"
   version="1.1"
   id="svg161"
   inkscape:version="1.1.2 (b8e25be8, 2022-02-05)"
   sodipodi:docname="h_stripes.svg"
   xmlns:inkscape="http://www.inkscape.org/namespaces/inkscape"
   xmlns:sodipodi="http://sodipodi.sourceforge.net/DTD/sodipodi-0.dtd"
   xmlns="http://www.w3.org/2000/svg"
   xmlns:svg="http://www.w3.org/2000/svg">
  <sodipodi:namedview
     id="namedview163"
     pagecolor="#ffffff"
     bordercolor="#666666"
     borderopacity="1.0"
     inkscape:pageshadow="2"
     inkscape:pageopacity="0.0"
     inkscape:pagecheckerboard="0"
     inkscape:document-units="mm"
     showgrid="false"
     inkscape:zoom="0.91115884"
     inkscape:cx="102.61658"
     inkscape:cy="149.80923"
     inkscape:window-width="1438"
     inkscape:window-height="689"
     inkscape:window-x="448"
     inkscape:window-y="43"
     inkscape:window-maximized="0"
     inkscape:current-layer="g30"
     units="mm" />
  <defs
     id="defs158" />
  <g
     inkscape:label="Layer 1"
     inkscape:groupmode="layer"
     id="layer1">
    <g
       id="g194"
       transform="matrix(0,0.03279929,-0.03312867,0,21.561498,30.136603)">
      <path
         class="st0"
         d="M 266.4,408.5 220.9,396.2 220.1,259.4 392.3,165.5 C 298.7,133.8 197.1,184 165.4,277.6 143.1,343.4 161,416.2 211.2,464.3 Z m 137.2,-147 45.5,12.3 0.8,136.9 -172.2,93.9 c 93.6,31.7 195.2,-18.5 226.9,-112.1 22.3,-65.8 4.4,-138.6 -45.8,-186.7 z"
         id="path188"
         style="fill:#000000" />
      <path
         class="st0"
         d="M 436.9,283 380.8,267.8 558,89.1 232.5,266.6 233.2,386.9 289.3,402.1 112,580.9 437.5,403.3 Z M 194.3,519 358.9,353 347.2,341.4 296.4,388.6 248,375.5 247.4,275.5 475.7,151 311.1,317 l 11.7,11.6 50.8,-47.2 48.5,13.1 0.6,100 z"
         id="path190"
         style="fill:#000000" />
    </g>
    <path
       class="st0"
       d="m 8.6477128,6.1941009 c -0.0144,0.010985 -0.0144,0.030208 -0.0072,0.043938 0.604796,0.8348305 1.310392,2.0513774 1.234793,3.1141383 l -0.018,0.255393 c -0.0468,0.7634298 -0.1188,1.9195608 -0.619197,2.6115918 -0.442797,0.612392 -0.629996,1.373077 -0.550796,2.260084 0.0648,0.746954 0.431997,1.417016 0.716395,1.919562 -0.111599,0.09337 -0.230398,0.181246 -0.352798,0.266377 -0.230398,0.153784 -0.539996,0.19223 -0.802795,0.09337 -0.406798,-0.151039 -0.626396,-0.565708 -0.586796,-1.114939 0.036,-0.488815 0.09,-0.837576 0.136799,-1.145145 0.100799,-0.639854 0.169199,-1.062762 -0.0864,-2.084331 -0.388797,-1.573546 -3.419979,-4.0752919 -5.176769,-4.5833311 -0.0252,-0.00824 -0.054,0.00275 -0.0648,0.02197 -0.0072,0.01373 -0.0036,0.030207 0.0108,0.041193 1.105194,0.8018767 1.375192,4.1768991 1.310393,4.9156151 -0.0144,0.183992 -0.072,0.439384 -0.1368,0.730477 -0.151198,0.697523 -0.359997,1.650438 -0.287998,2.721437 0.1008,1.491162 1.454392,2.817554 3.218381,3.158078 1.508391,0.291092 2.807984,-0.186738 3.6179792,-1.307169 0.165599,0.409176 0.323998,0.826592 0.413998,1.136907 0.136799,0.472339 0.219598,1.054524 0.147598,1.265978 -0.305998,-0.280108 -0.9323942,-0.466847 -1.5875902,-0.466847 -0.1008,0 -0.201599,0.0055 -0.302398,0.01373 -0.0288,0.0027 -0.0468,0.02197 -0.0432,0.04119 0,0.0082 0.0072,0.01922 0.018,0.02471 0.568797,0.381715 1.2671922,0.944677 1.3103922,1.057269 l 0.0324,0.109846 c 0.0684,0.244408 0.212399,0.752446 0.611997,1.1067 0.413997,0.367985 0.914394,0.546485 1.169993,0.546485 0.0252,0 0.0504,-0.0055 0.072,-0.01098 0.550797,0.315808 0.827995,0.91447 0.827995,1.164371 -0.018,0.05767 0.0216,0.118084 0.1044,0.156531 0.180001,0.08513 0.565199,0.06591 0.827994,-0.09337 0.4788,-0.293838 0.701999,-1.609246 0.273601,-2.293038 0.0144,-0.02472 0.1008,-0.153784 0.1008,-0.153784 0.205195,-0.30757 0.439195,-0.656331 0.212397,-1.298931 -0.0072,-0.01648 -0.0252,-0.02746 -0.0468,-0.02746 v 0 c -0.02159,0 -0.0432,0.01098 -0.0468,0.02746 -0.0432,0.137308 -0.190799,0.238915 -0.370798,0.260885 0.03242,-0.192231 0.1476,-0.925454 0.154798,-1.353854 0.09,-0.01098 0.237598,-0.05767 0.471598,-0.134562 0.241197,-0.07964 0.507596,-0.167515 0.683995,-0.194977 0.144,0.27187 0.557998,0.763431 1.796389,1.211054 0.09,0.03021 0.183597,0.04394 0.280798,0.04119 0.403197,0 0.968394,-0.19223 1.321192,-0.475084 0.417597,-0.335031 0.496799,-0.727731 0.226798,-1.112192 -0.0072,-0.01373 -0.0252,-0.01922 -0.0432,-0.01922 -0.0034,0 -0.0072,0 -0.01079,0 l -0.619197,0.08788 c -0.0144,0.0027 -0.02881,0.0082 -0.03599,0.01922 -0.2304,0.326793 -0.547197,0.675554 -0.655195,0.675554 v 0 c -0.180002,-0.0027 -1.162795,-0.584931 -1.353595,-1.057269 -0.187196,-0.458608 -0.226797,-0.516277 -0.680396,-0.516277 -0.341998,0 -0.889195,0.07689 -1.112393,0.1071 0.334799,-0.491561 0.539999,-1.449969 -0.197998,-2.287546 -0.777594,-0.881515 -1.007994,-1.584531 -0.957596,-1.765777 0,0 0.0034,-0.0055 0.0072,-0.01373 0.269998,0.1428 1.054793,0.299331 1.742392,0.299331 0.385194,0 0.737992,-0.04943 0.946791,-0.1785 0.485998,-0.296585 0.669599,-0.480577 0.719997,-0.5355 0.309599,0.05767 0.777594,0.480577 1.000796,0.908977 0.172797,0.329538 0.417593,0.807368 0.889191,0.807368 0.072,0 0.140401,-0.01098 0.208802,-0.03021 0.1044,-0.02746 0.183598,-0.107101 0.237599,-0.230677 0.111597,-0.26363 0.0756,-0.700269 -0.216,-1.032553 -0.392381,-0.444877 -1.306773,-1.488415 -2.476767,-1.488415 -0.352798,0.09886 -0.374396,0.123577 -0.442797,0.241661 l -0.197998,0.266377 c -0.03242,0.04119 -0.09,0.06865 -0.151202,0.07415 -0.01079,0 -0.02159,0.0028 -0.03242,0.0028 -0.158397,0 -0.385198,-0.09612 -0.673195,-0.288346 l -0.251996,-0.181249 c -0.284398,-0.2142 -0.550796,-0.417415 -1.493992,-0.724984 -0.233999,-0.07689 -0.482398,-0.115339 -0.737996,-0.118085 -0.791995,0 -1.472391,0.395446 -1.857589,0.779908 0.0864,-0.343269 0.327598,-0.595916 0.680396,-0.908977 0.295198,-0.263631 1.349992,-1.6284698 1.213193,-2.787346 -0.0864,-0.7249846 -0.781196,-1.7602854 -3.6107792,-2.5786388 -0.018,-0.010985 -0.0432,-0.00824 -0.054,0.00549 z M 12.064093,22.931908 c -0.0036,0 -0.0036,0 0,0 0.0036,-0.0027 0.018,-0.0027 0.0216,-0.0055 -0.0072,0.0055 -0.0144,0.0055 -0.0216,0.0055 z m 1.123194,-9.054069 c -0.0034,0 -0.0034,0 0,0 -0.0144,0 -0.02159,-0.0082 -0.02881,-0.01373 v 0 c 0.0072,0.0028 0.01801,0.0082 0.02881,0.01373 z"
       id="path129"
       style="fill:#000000;stroke-width:0.0314421" />
    <g
       id="g30"
       transform="matrix(0,-0.26458333,0.26458333,0,-54.674052,167.61908)">
      <path
         class="st0"
         d="m 356.05964,268.26592 29.63308,0.0515 -14.77981,-27.03499 z m 44.41287,-26.98347 -14.77979,27.02211 29.63307,-0.0515 z m -14.75531,-26.99636 -14.81653,26.99636 h 29.63307 z"
         id="path4"
         style="fill:#000000;stroke-width:0.125585" />
    </g>
  </g>
</svg>
