<?xml version="1.0" encoding="UTF-8" standalone="no"?>
<!-- Created with Inkscape (http://www.inkscape.org/) -->

<svg
   width="20mm"
   height="80mm"
   viewBox="0 0 20 79.999997"
   version="1.1"
   id="svg161"
   inkscape:version="1.1.2 (b8e25be8, 2022-02-05)"
   sodipodi:docname="zelda.svg"
   xmlns:inkscape="http://www.inkscape.org/namespaces/inkscape"
   xmlns:sodipodi="http://sodipodi.sourceforge.net/DTD/sodipodi-0.dtd"
   xmlns="http://www.w3.org/2000/svg"
   xmlns:svg="http://www.w3.org/2000/svg">
  <sodipodi:namedview
     id="namedview163"
     pagecolor="#ffffff"
     bordercolor="#666666"
     borderopacity="1.0"
     inkscape:pageshadow="2"
     inkscape:pageopacity="0.0"
     inkscape:pagecheckerboard="0"
     inkscape:document-units="mm"
     showgrid="false"
     inkscape:zoom="1.3984406"
     inkscape:cx="63.99986"
     inkscape:cy="162.68121"
     inkscape:window-width="1312"
     inkscape:window-height="735"
     inkscape:window-x="0"
     inkscape:window-y="25"
     inkscape:window-maximized="0"
     inkscape:current-layer="layer1" />
  <defs
     id="defs158" />
  <g
     inkscape:label="Layer 1"
     inkscape:groupmode="layer"
     id="layer1">
    <g
       id="g343"
       transform="matrix(-0.01040726,-0.22253099,0.222902,-0.01036869,13.411762,57.216469)"
       inkscape:transform-center-x="-9.9510053"
       inkscape:transform-center-y="-10.803487">
      <path
         style="display:inline;fill:#000000;fill-opacity:1;stroke:#000000;stroke-width:0.264583px;stroke-linecap:butt;stroke-linejoin:miter;stroke-opacity:1"
         d="m 4.6864415,-47.248196 5.4790235,16.837982 36.21502,4.543581 c -0.206205,1.209053 -0.519692,2.328709 0,4.142677 l -33.007786,3.073601 6.68174,12.962572 26.860587,-10.156243 c 0.320468,1.407808 0.781476,2.710215 1.603616,3.741772 L 27.93889,3.1321102 37.426956,9.5465785 51.324974,-7.1577657 c 0.862912,0.9347094 1.509617,1.9620812 3.207234,2.5390607 l -7.483546,16.704344 8.953529,2.004521 3.073598,-15.9025354 c 5.986902,2.2428517 9.713394,-6.2507336 4.009043,-8.4189916 -11.82793,-3.986254 -15.33345,-13.338272 -8.018086,-29.666916 -2.515286,1.861314 -4.933223,4.185039 -6.949006,8.418988 z"
         id="path2997"
         inkscape:connector-curvature="0"
         sodipodi:nodetypes="ccccccccccccccccccc" />
      <path
         style="display:inline;fill:#000000;fill-opacity:1;stroke:none;stroke-width:0.264583"
         d="m 73.710591,-52.192375 -21.10941,32.797741 h 21.10941 L 62.986061,-35.68073 h 21.436022 z m 10.711492,16.511653 -10.711492,16.288411 h 21.352703 z"
         id="path3767"
         inkscape:connector-curvature="0"
         sodipodi:nodetypes="cccccccccc" />
      <path
         style="display:inline;fill:#000000;fill-opacity:1;stroke:#000000;stroke-width:0.264583px;stroke-linecap:butt;stroke-linejoin:miter;stroke-opacity:1"
         d="m 59.877598,27.854533 1.336347,-4.47675 h -7.884451 l 2.271792,6.080363 -8.151723,-6.414452 c -1.595659,-1.253966 -1.655532,-2.608501 0.400905,-2.539048 h 10.557147 l 4.142677,-9.08718 c 1.325427,-2.6896036 5.95027,-1.126813 4.276312,2.138156 l -4.409945,6.949024 h 2.00452 c 1.715939,-0.05718 1.817666,1.56083 0.801809,2.539048 z"
         id="path3769"
         inkscape:connector-curvature="0"
         sodipodi:nodetypes="ccccccccccccc" />
      <path
         style="display:inline;fill:#000000;fill-opacity:1;stroke:#000000;stroke-width:0.264583px;stroke-linecap:butt;stroke-linejoin:miter;stroke-opacity:1"
         d="M 73.64198,29.859069 68.96476,17.201271 c 1.028372,-1.578478 1.728359,-3.839012 1.603619,-7.8124265 -2.017266,-2.6236824 -4.500653,-3.7557736 -6.949009,-4.9999608 1.919197,-1.7806088 3.973213,-3.72827017 4.543584,-6.75817 0.47123,-2.7313387 1.714545,-4.9281582 3.340867,-6.8598176 l 2.138159,-6.2140171 2.00452,6.2140171 c 1.765313,1.9209438 2.954078,4.2262557 3.650464,6.8598176 0.650743,2.74076052 2.278991,4.9065179 4.441219,6.75817 -2.461892,1.4209527 -5.191305,2.3403083 -6.992559,4.9999608 -0.589812,3.0609065 0.09156,5.5497885 1.27567,7.8124265 z"
         id="path3771"
         inkscape:connector-curvature="0"
         sodipodi:nodetypes="ccccccccccccc" />
      <path
         style="display:inline;fill:#000000;fill-opacity:1;stroke:#000000;stroke-width:0.264583px;stroke-linecap:butt;stroke-linejoin:miter;stroke-opacity:1"
         d="m 143.01086,-47.248196 -5.47903,16.837982 -36.21502,4.543581 c 0.20621,1.209053 0.51969,2.328709 0,4.142677 l 33.00779,3.073601 -6.68174,12.962572 -26.86059,-10.156243 c -0.32047,1.407808 -0.78148,2.710215 -1.603615,3.741772 L 119.75841,3.1321102 110.27034,9.5465785 96.372323,-7.1577657 c -0.862912,0.9347094 -1.509617,1.9620812 -3.207234,2.5390607 l 7.483551,16.704344 -8.953534,2.004521 -3.073598,-15.9025354 c -5.986902,2.2428517 -9.713394,-6.2507336 -4.009044,-8.4189916 11.827931,-3.986254 15.333451,-13.338272 8.018087,-29.666916 2.515285,1.861314 4.933222,4.185039 6.949006,8.418988 z"
         id="path2997-0"
         inkscape:connector-curvature="0"
         sodipodi:nodetypes="ccccccccccccccccccc" />
      <path
         style="display:inline;fill:#000000;fill-opacity:1;stroke:#000000;stroke-width:0.264583px;stroke-linecap:butt;stroke-linejoin:miter;stroke-opacity:1"
         d="m 87.601928,27.854533 -1.336347,-4.47675 h 7.884451 l -2.271792,6.080363 8.15173,-6.414452 c 1.59565,-1.253966 1.65553,-2.608501 -0.400909,-2.539048 h -10.55715 l -4.142677,-9.08718 c -1.325427,-2.6896036 -5.95027,-1.126813 -4.276312,2.138161 l 4.409945,6.949019 h -2.00452 c -1.715939,-0.05718 -1.817666,1.56083 -0.801809,2.539048 z"
         id="path3769-7"
         inkscape:connector-curvature="0"
         sodipodi:nodetypes="ccccccccccccc" />
    </g>
  </g>
</svg>
